<?xml version="1.0" encoding="UTF-8" standalone="no"?>
<!DOCTYPE svg PUBLIC "-//W3C//DTD SVG 1.1//EN"
 "http://www.w3.org/Graphics/SVG/1.1/DTD/svg11.dtd">
<!-- Generated by graphviz version 2.40.1 (20161225.0304)
 -->
<!-- Title: dependencies Pages: 1 -->
<svg width="544pt" height="211pt"
 viewBox="0.00 0.00 544.00 211.00" xmlns="http://www.w3.org/2000/svg" xmlns:xlink="http://www.w3.org/1999/xlink">
<g id="graph0" class="graph" transform="scale(1 1) rotate(0) translate(4 207)">
<title>dependencies</title>
<polygon fill="#ffffff" stroke="transparent" points="-4,4 -4,-207 540,-207 540,4 -4,4"/>
<text text-anchor="start" x="247.0091" y="-42.4" font-family="sans-serif" font-weight="bold" font-size="14.00" fill="#000000">Legend</text>
<polygon fill="#ffffb3" stroke="transparent" points="34,-10 34,-30 54,-30 54,-10 34,-10"/>
<text text-anchor="start" x="57.629" y="-15.4" font-family="sans-serif" font-size="14.00" fill="#000000"> &#160;Declarations</text>
<polygon fill="#8dd3c7" stroke="transparent" points="147,-10 147,-30 167,-30 167,-10 147,-10"/>
<text text-anchor="start" x="170.7251" y="-15.4" font-family="sans-serif" font-size="14.00" fill="#000000"> &#160;Module</text>
<polygon fill="#80b1d3" stroke="transparent" points="233,-10 233,-30 253,-30 253,-10 233,-10"/>
<text text-anchor="start" x="256.7812" y="-15.4" font-family="sans-serif" font-size="14.00" fill="#000000"> &#160;Bootstrap</text>
<polygon fill="#fdb462" stroke="transparent" points="330,-10 330,-30 350,-30 350,-10 330,-10"/>
<text text-anchor="start" x="353.6732" y="-15.4" font-family="sans-serif" font-size="14.00" fill="#000000"> &#160;Providers</text>
<polygon fill="#fb8072" stroke="transparent" points="426,-10 426,-30 446,-30 446,-10 426,-10"/>
<text text-anchor="start" x="449.7258" y="-15.4" font-family="sans-serif" font-size="14.00" fill="#000000"> &#160;Exports</text>
<g id="clust1" class="cluster">
<title>cluster_StarshipsModule</title>
<polygon fill="none" stroke="#000000" stroke-dasharray="1,5" points="8,-70 8,-195 528,-195 528,-70 8,-70"/>
</g>
<g id="clust2" class="cluster">
<title>cluster_StarshipsModule_declarations</title>
<polygon fill="none" stroke="#000000" points="372,-78 372,-130 520,-130 520,-78 372,-78"/>
</g>
<g id="clust4" class="cluster">
<title>cluster_StarshipsModule_imports</title>
<polygon fill="none" stroke="#000000" points="16,-78 16,-130 364,-130 364,-78 16,-78"/>
</g>
<!-- StarshipsComponent -->
<g id="node1" class="node">
<title>StarshipsComponent</title>
<polygon fill="#ffffb3" stroke="#000000" points="512.161,-122 379.839,-122 379.839,-86 512.161,-86 512.161,-122"/>
<text text-anchor="middle" x="446" y="-99.8" font-family="Times,serif" font-size="14.00" fill="#000000">StarshipsComponent</text>
</g>
<!-- StarshipsModule -->
<g id="node2" class="node">
<title>StarshipsModule</title>
<polygon fill="#8dd3c7" stroke="#000000" points="333.3781,-187 330.3781,-191 309.3781,-191 306.3781,-187 222.6219,-187 222.6219,-151 333.3781,-151 333.3781,-187"/>
<text text-anchor="middle" x="278" y="-164.8" font-family="Times,serif" font-size="14.00" fill="#000000">StarshipsModule</text>
</g>
<!-- StarshipsComponent&#45;&gt;StarshipsModule -->
<g id="edge1" class="edge">
<title>StarshipsComponent&#45;&gt;StarshipsModule</title>
<path fill="none" stroke="#000000" d="M446,-122.1061C446,-141.3391 446,-169 446,-169 446,-169 343.4751,-169 343.4751,-169"/>
<polygon fill="#000000" stroke="#000000" points="343.4751,-165.5001 333.4751,-169 343.475,-172.5001 343.4751,-165.5001"/>
</g>
<!-- StarshipsRoutingModule -->
<g id="node3" class="node">
<title>StarshipsRoutingModule</title>
<polygon fill="#8dd3c7" stroke="#000000" points="355.9958,-122 352.9958,-126 331.9958,-126 328.9958,-122 200.0042,-122 200.0042,-86 355.9958,-86 355.9958,-122"/>
<text text-anchor="middle" x="278" y="-99.8" font-family="Times,serif" font-size="14.00" fill="#000000">StarshipsRoutingModule</text>
</g>
<!-- StarshipsRoutingModule&#45;&gt;StarshipsModule -->
<g id="edge2" class="edge">
<title>StarshipsRoutingModule&#45;&gt;StarshipsModule</title>
<path fill="none" stroke="#000000" d="M278,-122.1061C278,-122.1061 278,-140.991 278,-140.991"/>
<polygon fill="#000000" stroke="#000000" points="274.5001,-140.9909 278,-150.991 281.5001,-140.991 274.5001,-140.9909"/>
</g>
<!-- StarshipsServicesModule -->
<g id="node4" class="node">
<title>StarshipsServicesModule</title>
<polygon fill="#8dd3c7" stroke="#000000" points="182.3005,-122 179.3005,-126 158.3005,-126 155.3005,-122 23.6995,-122 23.6995,-86 182.3005,-86 182.3005,-122"/>
<text text-anchor="middle" x="103" y="-99.8" font-family="Times,serif" font-size="14.00" fill="#000000">StarshipsServicesModule</text>
</g>
<!-- StarshipsServicesModule&#45;&gt;StarshipsModule -->
<g id="edge3" class="edge">
<title>StarshipsServicesModule&#45;&gt;StarshipsModule</title>
<path fill="none" stroke="#000000" d="M103,-122.1061C103,-141.3391 103,-169 103,-169 103,-169 212.1478,-169 212.1478,-169"/>
<polygon fill="#000000" stroke="#000000" points="212.1478,-172.5001 222.1478,-169 212.1477,-165.5001 212.1478,-172.5001"/>
</g>
</g>
</svg>
